<svg width="110" height="82" viewBox="0 0 110 82" fill="none" xmlns="http://www.w3.org/2000/svg">
<g opacity="0.6">
<path fill-rule="evenodd" clip-rule="evenodd" d="M24.3058 11.6386C24.4914 10.2631 24.6239 8.78179 24.8227 7.43276L24.995 6.04405L25.1275 4.98598C25.1408 4.82727 25.1275 4.68179 25.1938 4.68179H27.6721L27.8709 6.25566L28.0564 7.81631L28.2552 9.39018C28.3347 9.91921 28.3877 10.435 28.4408 10.964L29.0239 15.6592C29.0636 15.8973 29.0636 15.8576 28.8118 15.8576H27.4865L27.2612 13.3976L27.2347 13.0537H25.6046L25.5383 13.7547L25.4058 15.1566C25.4058 15.3815 25.3661 15.6328 25.3395 15.8576H23.7889L23.8685 15.1302C24.0275 14.006 24.1468 12.776 24.3058 11.6253V11.6386ZM25.9624 9.61502C25.9227 9.85308 25.9227 10.0779 25.8962 10.316L25.7636 11.7311H27.0889L26.6914 7.10211C26.6648 7.00953 26.6649 6.8376 26.6649 6.74502C26.6649 6.52018 26.6118 6.26889 26.6118 6.03082H26.2673C26.201 6.03082 26.2142 6.09695 26.2142 6.17631L26.1745 6.73179C26.1215 7.40631 26.042 8.22631 26.0155 8.90082L25.9624 9.61502ZM37.0022 10.2499L37.0287 13.0273L37.0552 13.3579C37.0552 13.6224 37.0552 14.1118 37.148 14.3102C37.3335 14.6937 37.7444 14.707 38.1552 14.707H46.1335C46.3588 14.707 46.5841 14.707 46.7564 14.6408C46.8889 14.5879 46.9817 14.5218 47.0612 14.416C47.2468 14.1647 47.2203 13.6886 47.2203 13.3844L47.2468 13.0537L47.2733 10.3557L47.26 9.68114L47.2468 7.63114L47.2203 6.96985C47.2203 6.28211 47.154 5.81921 46.3191 5.81921H37.9432C37.4926 5.81921 37.201 5.99114 37.1082 6.34824C37.0685 6.46727 37.042 6.8376 37.0552 6.95663L37.0287 7.60469L37.0022 10.2499ZM77.0263 9.27114L76.801 11.7311H78.1263L78.0733 11.017C78.0335 10.3953 77.9142 9.69437 77.8877 9.05953L77.8745 8.90082C77.8745 8.79502 77.8745 8.63631 77.848 8.5305L77.6889 6.38792L77.6624 6.03082H77.2781L77.2516 6.38792L77.1721 7.47243L77.0395 9.27114H77.0263ZM82.46 6.03082V10.5011H82.9504C83.8251 10.5011 84.0769 10.2366 84.0769 9.41663L84.0901 9.05953V7.45921L84.0769 7.11534C84.0769 5.92502 83.4805 6.03082 82.4733 6.03082H82.46ZM29.7793 11.7179H31.1709C31.2504 11.7179 31.2106 11.837 31.2106 11.9428V12.2205C31.1576 12.7099 31.2106 13.2653 31.2106 13.7547C31.2106 14.3763 31.4757 14.7202 32.1383 14.707C32.8805 14.6937 32.9335 14.297 32.9998 13.7018V13.3844C33.0395 13.1331 32.9998 12.8289 32.9998 12.5908L32.9865 12.1147C32.9683 11.8457 32.8914 11.5839 32.7612 11.3476C32.3371 10.7921 30.7468 11.0566 30.0974 10.025C29.6203 9.25792 29.6998 8.04114 29.6998 7.08889C29.6998 6.30856 29.8456 5.62082 30.2167 5.1976C30.3073 5.09251 30.4148 5.00313 30.5347 4.93308C30.8926 4.70824 31.3697 4.60243 31.86 4.57598H32.3239C32.6685 4.58921 33.013 4.65534 33.2781 4.74792C33.5697 4.85372 33.8082 5.01243 33.9673 5.22405C34.6299 6.04405 34.4444 7.60469 34.4444 8.71566H32.9865L32.9998 7.63114C32.9998 7.19469 33.0528 6.40114 32.8408 6.11018C32.5757 5.77953 31.9661 5.75308 31.6215 5.91179C31.5029 5.97003 31.4089 6.06848 31.3564 6.18953C31.2769 6.32179 31.2504 6.45405 31.2239 6.62598L31.2106 6.8905V7.15501C31.2106 7.7634 31.1576 8.54373 31.3697 9.07276C31.6745 9.77373 32.9468 9.44308 33.795 10.1705C34.3914 10.6599 34.5239 11.6253 34.5239 12.4586C34.5239 13.7811 34.6167 15.2624 33.3576 15.765C33.0349 15.8851 32.6947 15.9521 32.3504 15.9634H31.913C31.5887 15.9486 31.2678 15.8908 30.9588 15.7915C30.4287 15.6195 30.1239 15.2624 29.9383 14.7466C29.6998 14.0986 29.7395 13.0273 29.7395 12.2734C29.7395 12.1676 29.7793 11.9295 29.7793 11.7311V11.7179ZM35.5841 14.1647C35.5371 13.6813 35.5194 13.1954 35.5311 12.7099L35.5179 12.247L35.5046 10.2631V8.29243L35.5311 7.31373C35.5311 6.50695 35.5841 5.55469 36.2335 5.02566C36.6046 4.70824 37.254 4.57598 37.7841 4.57598H46.4781C47.2203 4.57598 48.0287 4.77437 48.3998 5.44889C48.5191 5.63405 48.5986 5.88534 48.6516 6.1234C48.6914 6.30856 48.7179 6.55985 48.7179 6.77147L48.7444 6.98308V7.88243L48.7709 9.72082L48.7576 12.6834C48.7576 12.8553 48.7311 12.9611 48.7444 13.1331C48.7444 13.6224 48.7444 13.9399 48.6383 14.4292C48.5588 14.8921 48.3335 15.3153 47.9492 15.5799C47.6179 15.8179 47.048 15.9634 46.4781 15.9634H37.7709C36.4853 15.9634 35.7299 15.4344 35.5709 14.1647H35.5841ZM49.9239 14.4557C49.8123 13.765 49.7723 13.0648 49.8046 12.366L49.8444 11.9031C49.8444 11.8237 49.8179 11.7311 49.8974 11.7311H51.2889L51.2624 12.0486V12.6834C51.2624 13.0537 51.2492 13.9134 51.342 14.1911C51.395 14.3631 51.4745 14.4689 51.607 14.5747C51.7697 14.652 51.9464 14.6953 52.1264 14.7022C52.3064 14.709 52.486 14.6791 52.654 14.6144C53.1046 14.4028 53.0914 13.6886 53.0914 13.1595C53.0914 12.604 53.1046 11.7311 52.7998 11.3344C52.654 11.1228 52.4022 11.0699 52.1239 11.0037L51.3155 10.7921C50.9179 10.6863 50.454 10.4482 50.2155 10.1044C49.6853 9.31082 49.7648 8.16018 49.7648 7.16824C49.7648 6.63921 49.8311 5.96469 50.0829 5.50179C50.1359 5.40921 50.1624 5.34308 50.2552 5.23727C50.4275 5.01243 50.6661 4.8405 50.9709 4.74792C51.2624 4.64211 51.6335 4.57598 52.0179 4.57598C52.7468 4.57598 53.5154 4.62889 54.0058 5.1976C54.6155 5.87211 54.5359 7.12856 54.5359 8.0676L54.5094 8.72889H53.0516C53.0516 8.22631 53.1179 6.70534 53.0118 6.34824C52.9769 6.20823 52.898 6.08307 52.7865 5.99114L52.5612 5.87211C52.2432 5.75308 51.5938 5.77953 51.395 6.22921C51.2359 6.57308 51.2624 7.37985 51.2624 7.85598L51.2889 8.08082C51.2889 8.4776 51.3022 8.80824 51.4877 9.13889C51.8191 9.80018 53.6347 9.4034 54.2444 10.6466C54.4697 11.0831 54.5889 11.6782 54.5889 12.3263C54.5889 13.0273 54.6155 13.7415 54.4829 14.4028C54.4034 14.7599 54.3106 14.9847 54.1118 15.2624C53.7805 15.765 52.9721 15.9634 52.3359 15.9634C51.1034 15.9634 50.2155 15.7518 49.9239 14.4557ZM56.007 15.2095C55.7601 14.8113 55.6229 14.3551 55.6094 13.887L55.5829 9.17856L55.5962 6.99631L55.6227 6.78469C55.6227 6.25566 55.7552 5.68695 56.0998 5.29018L56.1528 5.22405C56.3383 4.99921 56.6034 4.85372 56.8685 4.74792C57.5806 4.53529 58.3382 4.52612 59.0552 4.72147C59.2275 4.7876 59.5191 4.8934 59.6516 5.01243C59.7576 5.11824 59.8371 5.17114 59.9299 5.31663C60.0624 5.51502 60.142 5.68695 60.2215 5.92502C60.407 6.59953 60.354 7.52534 60.354 8.27921L60.3408 8.71566H58.8299V6.8905C58.8299 6.49372 58.8299 6.13663 58.4986 5.95147C58.4001 5.89665 58.2922 5.86076 58.1805 5.84566C57.6504 5.77953 57.2528 5.92501 57.1468 6.46727L57.107 6.86405V7.69727L57.0805 8.96695C57.0805 9.83985 57.054 11.0831 57.0938 11.9428V12.8686C57.0938 12.9744 57.1203 13.0273 57.107 13.1463C57.107 13.9795 57.0275 14.707 58.0082 14.707C58.6576 14.707 58.8962 14.3895 58.8962 13.7415V11.7444H60.407C60.407 12.3528 60.4468 13.4902 60.3805 14.0721C60.3275 14.4689 60.2215 14.8392 60.0492 15.1302C59.9564 15.2624 59.8636 15.3815 59.7311 15.4873L59.5323 15.6195C59.2275 15.8311 58.6974 15.937 58.154 15.9634H57.7829C57.2528 15.937 56.7492 15.8311 56.4444 15.6328C56.2456 15.5005 56.1395 15.4079 56.007 15.2095ZM61.5203 15.7915V4.73469C61.5203 4.69502 61.5203 4.68179 61.5733 4.68179H63.0311V9.52243H64.648V4.68179H66.1588V15.8708H64.648V10.8715H63.0311V15.8576H61.5733C61.5203 15.8576 61.5203 15.8444 61.5203 15.7915ZM67.4709 15.8576V4.68179H68.9155C68.9552 4.68179 68.9685 4.69502 68.9685 4.73469V15.7915C68.9685 15.8444 68.9552 15.8576 68.9155 15.8576H67.4576H67.4709ZM70.254 15.8576V4.68179H71.7781V14.4953H74.2697V15.8708H70.2673L70.254 15.8576ZM75.8733 7.43276L76.1914 4.81405C76.1914 4.74792 76.1781 4.68179 76.2444 4.68179H78.7227C78.7227 4.7876 78.7624 4.97276 78.7757 5.07856L78.9215 6.25566L79.0142 7.04921L79.3058 9.39018L79.4914 10.964L79.6902 12.5247L79.7829 13.3182L80.0745 15.6592C80.1142 15.8973 80.1142 15.8576 79.8624 15.8576H78.5371C78.5371 15.6328 78.4841 15.3815 78.4841 15.1566L78.4046 14.4557L78.2721 13.0537H76.6552L76.5492 14.1118C76.5492 14.244 76.5492 14.3366 76.5227 14.4557L76.4697 15.1566L76.3901 15.8576H74.8396L75.1841 13.0405L75.3564 11.6253L75.5287 10.2366L75.8733 7.43276ZM80.9492 15.7915V4.73469C80.9492 4.69502 80.9624 4.68179 81.0022 4.68179H82.8841C83.3745 4.68179 83.8383 4.70824 84.2359 4.81405C85.3757 5.13147 85.5877 6.17631 85.5877 7.20792L85.601 7.56501V7.93534C85.601 8.9934 85.707 10.3821 85.1106 11.136C84.9914 11.2815 84.7395 11.5328 84.554 11.5592C84.554 11.6518 84.607 11.7708 84.6203 11.8502L84.6998 12.1147C84.7926 12.4321 85.76 15.7518 85.76 15.8576H84.1697L83.242 12.2866L83.1757 12.0353C83.1359 11.9163 83.1359 11.837 83.0697 11.837H82.4733V15.8576H81.0154C80.9624 15.8576 80.9492 15.8444 80.9492 15.7915ZM90.9155 1.26953H18.6335C17.4408 1.26953 16.4468 2.24824 16.4468 3.45179V17.0876C16.4468 18.2779 17.4408 19.2699 18.6335 19.2699H90.9155C92.1215 19.2699 93.1022 18.2911 93.1022 17.0876V3.45179C93.1022 2.24824 92.1215 1.26953 90.9155 1.26953Z" fill="white"/>
<path d="M19.7205 64.3565H24.4651C25.6843 64.3565 26.294 64.9649 26.294 66.1817V71.7101C26.294 78.032 23.1265 81.193 16.8048 81.193H9.48916C3.18072 81.193 0 78.032 0 71.7101V32.3501C0 26.0414 3.16747 22.8804 9.48916 22.8804H16.8048C23.1265 22.8804 26.294 26.0414 26.294 32.3501V37.9049C26.294 39.1085 25.6843 39.7169 24.4651 39.7169H19.7205C18.5012 39.7169 17.8916 39.1085 17.8916 37.8917V36.212C17.8916 34.1356 17.6265 32.7733 17.0964 32.1782C16.5663 31.5698 15.241 31.2523 13.147 31.2523C11.3446 31.2523 10.0988 31.5433 9.42289 32.0988C8.73374 32.6543 8.40241 34.0298 8.40241 36.212V67.8482C8.40241 70.0436 8.73374 71.4191 9.42289 71.9746C10.0988 72.5301 11.3446 72.8078 13.1337 72.8078C14.0614 72.8078 14.7373 72.7814 15.1614 72.7417C15.559 72.6888 16.0361 72.5169 16.5398 72.2259C17.0566 71.9349 17.4012 71.4323 17.6 70.7314C17.7988 70.0304 17.8916 69.0649 17.8916 67.8482V66.1817C17.8916 64.9649 18.5012 64.3565 19.7205 64.3565ZM29.2096 78.6404V24.7056C29.2096 23.4888 29.8193 22.8804 31.0386 22.8804H35.7831C37.0024 22.8804 37.612 23.4888 37.612 24.7056V70.6256C37.612 71.4456 37.7711 72.0143 38.0892 72.3449C38.4072 72.6491 38.9771 72.8078 39.8121 72.8078H47.9096C49.1289 72.8078 49.7386 73.4162 49.7386 74.633V79.3546C49.7386 80.5714 49.1289 81.1798 47.9096 81.1798H31.7675C30.8 81.1798 30.1241 80.9946 29.7663 80.6375C29.3952 80.2672 29.2096 79.5927 29.2096 78.6272V78.6404ZM69.8964 67.134V24.6923C69.8964 23.4756 70.506 22.8672 71.7253 22.8672H76.4699C77.6892 22.8672 78.2988 23.4756 78.2988 24.6923V71.6969C78.2988 78.0188 75.1313 81.1798 68.8096 81.1798H61.4277C55.0928 81.1798 51.9253 78.0188 51.9253 71.6969V24.7056C51.9253 23.4888 52.5349 22.8804 53.7542 22.8804H58.4988C59.7181 22.8804 60.3277 23.4888 60.3277 24.7056V67.1207C60.3277 69.3691 60.6723 70.8636 61.3482 71.644C62.0374 72.4243 63.2036 72.8078 64.8602 72.8078H65.2976C67.047 72.8078 68.253 72.4375 68.9157 71.6836C69.5783 70.9298 69.8964 69.4088 69.8964 67.1207V67.134ZM82.6855 78.6404V25.433C82.6855 24.4543 82.8578 23.793 83.2289 23.4227C83.6 23.0656 84.2627 22.8804 85.2434 22.8804H98.8277C105.149 22.8804 108.317 26.0414 108.317 32.3501V45.1791C108.317 46.3562 107.906 47.7582 107.071 49.4114C106.833 49.8478 106.886 50.2578 107.217 50.6546C108.738 52.2091 109.582 54.3011 109.563 56.474V71.7101C109.563 78.032 106.382 81.193 100.06 81.193H85.2434C83.5337 81.193 82.6855 80.3465 82.6855 78.6404ZM96.6145 55.0191H93.2615C92.4265 55.0191 91.8566 55.1778 91.5386 55.4952C91.2205 55.8127 91.0614 56.3814 91.0614 57.2146V70.6256C91.0614 71.4456 91.2205 72.0143 91.5386 72.3449C91.8566 72.6491 92.4265 72.8078 93.2615 72.8078H95.8193C97.7675 72.8078 99.1325 72.5169 99.941 71.9349C100.736 71.353 101.147 69.9907 101.147 67.8482V59.9788C101.147 57.9949 100.789 56.6723 100.087 56.0507C99.3843 55.4159 98.2313 55.072 96.6145 55.0191ZM94.5735 31.2656H93.2482C92.4265 31.2656 91.8566 31.4243 91.5386 31.7417C91.2205 32.0459 91.0614 32.6278 91.0614 33.4611V44.4517C91.0614 45.232 91.2205 45.7875 91.5386 46.1314C91.8566 46.4753 92.4265 46.6472 93.2615 46.6472H94.5735C96.5217 46.6472 97.8868 46.3562 98.6952 45.7611C99.5036 45.1791 99.9012 43.8169 99.9012 41.6875V36.212C99.9012 34.0827 99.5036 32.7204 98.7084 32.1385C97.9 31.5565 96.5217 31.2656 94.5735 31.2656Z" fill="white"/>
</g>
</svg>
