<svg width="305" height="122" viewBox="0 0 305 122" fill="none" xmlns="http://www.w3.org/2000/svg">
<rect x="29" width="247" height="76" rx="24" fill="#131313"/>
<rect x="29.5" y="0.5" width="246" height="75" rx="23.5" stroke="#292929"/>
<g clip-path="url(#clip0_1_122)">
<g clip-path="url(#clip1_1_122)">
<path d="M97.233 12.8105H59.9153C50.0716 12.8105 42.0918 20.7904 42.0918 30.634V45.6724C42.0918 55.5161 50.0716 63.4959 59.9153 63.4959H97.233C107.077 63.4959 115.056 55.5161 115.056 45.6724V30.634C115.056 20.7904 107.077 12.8105 97.233 12.8105Z" fill="black" fill-opacity="0.89"/>
<mask id="mask0_1_122" style="mask-type:luminance" maskUnits="userSpaceOnUse" x="65" y="25" width="27" height="27">
<path d="M91.6926 25.2471H65.6309V51.3088H91.6926V25.2471Z" fill="white"/>
</mask>
<g mask="url(#mask0_1_122)">
<g opacity="0.4">
<path d="M88.435 30.1337V35.0203C88.435 35.2363 88.3492 35.4435 88.1964 35.5962C88.0437 35.7489 87.8366 35.8347 87.6206 35.8347H82.734C82.5728 35.8349 82.4152 35.7872 82.2812 35.6977C82.1471 35.6082 82.0426 35.481 81.9809 35.3321C81.9192 35.1832 81.9031 35.0193 81.9346 34.8613C81.9661 34.7032 82.0437 34.558 82.1578 34.4441L84.2529 32.349C82.9294 31.2383 81.0206 30.1337 78.6618 30.1337C74.9694 30.1337 72.744 32.3164 72.7226 32.3388C72.5698 32.4916 72.3625 32.5775 72.1464 32.5775C71.9303 32.5775 71.723 32.4916 71.5702 32.3388C71.4174 32.186 71.3315 31.9787 71.3315 31.7626C71.3315 31.5465 71.4174 31.3392 71.5702 31.1864C71.6801 31.0775 74.3026 28.5049 78.6618 28.5049C81.04 28.5049 83.358 29.4313 85.4094 31.1935L87.0443 29.5575C87.1582 29.4435 87.3034 29.3658 87.4615 29.3344C87.6196 29.3029 87.7834 29.319 87.9323 29.3807C88.0812 29.4424 88.2084 29.5469 88.2979 29.6809C88.3874 29.815 88.4351 29.9726 88.435 30.1337ZM84.6011 44.2173C84.5797 44.2397 82.3542 46.4223 78.6618 46.4223C76.303 46.4223 74.3942 45.3178 73.0708 44.2071L75.1659 42.112C75.2799 41.9981 75.3576 41.8529 75.3891 41.6948C75.4205 41.5368 75.4044 41.3729 75.3427 41.224C75.281 41.0751 75.1765 40.9479 75.0425 40.8584C74.9084 40.7689 74.7509 40.7212 74.5897 40.7213H69.7031C69.4871 40.7213 69.2799 40.8071 69.1272 40.9599C68.9745 41.1126 68.8887 41.3198 68.8887 41.5358V46.4223C68.8885 46.5835 68.9362 46.7411 69.0257 46.8751C69.1152 47.0092 69.2424 47.1137 69.3913 47.1754C69.5402 47.2371 69.7041 47.2532 69.8622 47.2217C70.0202 47.1902 70.1654 47.1126 70.2793 46.9985L71.9143 45.3626C73.9656 47.1248 76.2837 48.0512 78.6618 48.0512C83.0211 48.0512 85.6435 45.4786 85.7535 45.3697C85.9063 45.2169 85.9921 45.0096 85.9921 44.7935C85.9921 44.5774 85.9063 44.3701 85.7535 44.2173C85.6007 44.0644 85.3934 43.9786 85.1773 43.9786C84.9611 43.9786 84.7539 44.0644 84.6011 44.2173Z" fill="white"/>
</g>
</g>
</g>
</g>
<rect x="130" y="15.5701" width="7" height="7" rx="3.5" fill="white" fill-opacity="0.4"/>
<path d="M140.641 22V16.2019H144.833V16.8861H141.408V18.6619H144.616V19.3422H141.408V21.3158H144.968V22H140.641ZM146.527 22V16.2019H149.098C149.615 16.2019 150.008 16.2546 150.277 16.3601C150.546 16.4629 150.761 16.6461 150.921 16.9098C151.082 17.1735 151.163 17.4648 151.163 17.7839C151.163 18.1952 151.03 18.5419 150.763 18.8241C150.497 19.1062 150.086 19.2855 149.529 19.362C149.732 19.4595 149.887 19.5558 149.992 19.6507C150.216 19.8563 150.428 20.1134 150.629 20.4219L151.637 22H150.672L149.905 20.7937C149.681 20.4457 149.496 20.1793 149.351 19.9948C149.206 19.8102 149.076 19.681 148.96 19.6072C148.846 19.5333 148.73 19.4819 148.612 19.4529C148.525 19.4345 148.382 19.4252 148.185 19.4252H147.295V22H146.527ZM147.295 18.7608H148.944C149.295 18.7608 149.569 18.7252 149.767 18.654C149.964 18.5802 150.115 18.4642 150.217 18.306C150.32 18.1451 150.372 17.9711 150.372 17.7839C150.372 17.5097 150.272 17.2842 150.071 17.1076C149.873 16.9309 149.56 16.8426 149.13 16.8426H147.295V18.7608ZM154.182 22V16.8861H152.272V16.2019H156.868V16.8861H154.949V22H154.182ZM156.909 22L159.135 16.2019H159.962L162.335 22H161.461L160.785 20.2439H158.36L157.723 22H156.909ZM158.582 19.619H160.547L159.942 18.0133C159.758 17.5255 159.62 17.1247 159.531 16.8109C159.457 17.1827 159.353 17.5519 159.218 17.9184L158.582 19.619ZM166.149 19.7258V19.0456L168.605 19.0416V21.1932C168.228 21.4937 167.839 21.7205 167.439 21.8734C167.038 22.0237 166.626 22.0989 166.205 22.0989C165.635 22.0989 165.117 21.9776 164.65 21.735C164.186 21.4898 163.835 21.1365 163.598 20.675C163.361 20.2136 163.242 19.6981 163.242 19.1286C163.242 18.5644 163.36 18.0383 163.594 17.5505C163.831 17.0601 164.172 16.6962 164.615 16.4589C165.058 16.2216 165.568 16.103 166.145 16.103C166.564 16.103 166.943 16.1715 167.28 16.3086C167.62 16.4431 167.887 16.6316 168.079 16.8742C168.272 17.1168 168.418 17.4332 168.518 17.8234L167.826 18.0133C167.739 17.718 167.631 17.4859 167.502 17.3172C167.373 17.1484 167.188 17.014 166.948 16.9138C166.708 16.8109 166.442 16.7595 166.149 16.7595C165.798 16.7595 165.495 16.8136 165.24 16.9217C164.984 17.0271 164.777 17.1669 164.619 17.3409C164.463 17.5149 164.342 17.7061 164.255 17.9144C164.107 18.273 164.033 18.6619 164.033 19.0812C164.033 19.5979 164.122 20.0304 164.298 20.3784C164.477 20.7265 164.737 20.9849 165.077 21.1536C165.417 21.3224 165.779 21.4067 166.161 21.4067C166.493 21.4067 166.818 21.3435 167.134 21.2169C167.45 21.0877 167.69 20.9506 167.854 20.8056V19.7258H166.149ZM169.592 22L171.818 16.2019H172.645L175.018 22H174.144L173.468 20.2439H171.043L170.406 22H169.592ZM171.265 19.619H173.23L172.625 18.0133C172.441 17.5255 172.303 17.1247 172.214 16.8109C172.14 17.1827 172.036 17.5519 171.901 17.9184L171.265 19.619Z" fill="white" fill-opacity="0.4"/>
<rect x="128" y="31" width="100" height="10" rx="5" fill="#D9D9D9" fill-opacity="0.09"/>
<rect x="128" y="49" width="51" height="10" rx="5" fill="#D9D9D9" fill-opacity="0.09"/>
<rect x="0.169998" y="28" width="304" height="94" rx="30" fill="#131313"/>
<rect x="0.669998" y="28.5" width="303" height="93" rx="29.5" stroke="#292929"/>
<path d="M132.381 64.3257H134.323V72.804C134.323 74.2787 134.156 75.4499 133.822 76.3174C133.489 77.1849 132.885 77.8923 132.011 78.4395C131.143 78.98 130.002 79.2502 128.587 79.2502C127.213 79.2502 126.088 79.0133 125.214 78.5396C124.34 78.0658 123.716 77.3818 123.342 76.4875C122.968 75.5867 122.782 74.3588 122.782 72.804V64.3257H124.723V72.7939C124.723 74.0685 124.84 75.0094 125.074 75.6167C125.314 76.2173 125.721 76.6811 126.295 77.0081C126.876 77.335 127.583 77.4985 128.417 77.4985C129.845 77.4985 130.863 77.1749 131.47 76.5276C132.077 75.8803 132.381 74.6357 132.381 72.7939V64.3257ZM144.068 75.1062L145.839 75.3364C145.646 76.5576 145.149 77.5152 144.348 78.2092C143.554 78.8966 142.576 79.2402 141.415 79.2402C139.96 79.2402 138.789 78.7664 137.902 77.8188C137.021 76.8646 136.58 75.4999 136.58 73.7249C136.58 72.5771 136.77 71.5728 137.151 70.7119C137.531 69.8511 138.108 69.2071 138.882 68.78C139.663 68.3463 140.511 68.1294 141.425 68.1294C142.579 68.1294 143.524 68.423 144.258 69.0103C144.992 69.5908 145.462 70.4183 145.669 71.4927L143.917 71.7629C143.751 71.0489 143.454 70.5117 143.027 70.1514C142.606 69.791 142.096 69.6108 141.495 69.6108C140.587 69.6108 139.85 69.9378 139.283 70.5918C138.716 71.2391 138.432 72.2668 138.432 73.6748C138.432 75.1029 138.706 76.1405 139.253 76.7878C139.8 77.4351 140.514 77.7588 141.395 77.7588C142.102 77.7588 142.693 77.5419 143.167 77.1082C143.64 76.6744 143.941 76.0071 144.068 75.1062ZM147.176 79V64.3257H148.978V69.5908C149.818 68.6165 150.879 68.1294 152.161 68.1294C152.948 68.1294 153.632 68.2862 154.213 68.5999C154.793 68.9068 155.207 69.3339 155.454 69.8811C155.707 70.4283 155.834 71.2224 155.834 72.2634V79H154.032V72.2634C154.032 71.3625 153.836 70.7086 153.442 70.3015C153.055 69.8878 152.504 69.6809 151.79 69.6809C151.256 69.6809 150.753 69.821 150.279 70.1013C149.812 70.3749 149.478 70.7486 149.278 71.2224C149.078 71.6962 148.978 72.3502 148.978 73.1843V79H147.176ZM158.362 79V68.3696H159.983V69.9812C160.397 69.2271 160.778 68.73 161.125 68.4897C161.478 68.2495 161.865 68.1294 162.286 68.1294C162.893 68.1294 163.51 68.3229 164.138 68.71L163.517 70.3816C163.076 70.1213 162.636 69.9912 162.196 69.9912C161.802 69.9912 161.448 70.1113 161.135 70.3516C160.821 70.5851 160.597 70.9121 160.464 71.3325C160.264 71.9731 160.164 72.6738 160.164 73.4346V79H158.362ZM171.94 77.6887C171.273 78.2559 170.629 78.6563 170.008 78.8899C169.394 79.1235 168.734 79.2402 168.026 79.2402C166.859 79.2402 165.961 78.9566 165.334 78.3894C164.707 77.8155 164.393 77.0848 164.393 76.1973C164.393 75.6768 164.51 75.203 164.743 74.7759C164.984 74.3421 165.294 73.9951 165.674 73.7349C166.061 73.4746 166.495 73.2778 166.975 73.1443C167.329 73.0509 167.863 72.9608 168.577 72.874C170.032 72.7005 171.103 72.4937 171.79 72.2534C171.797 72.0065 171.8 71.8497 171.8 71.783C171.8 71.0489 171.63 70.5317 171.29 70.2314C170.829 69.8244 170.145 69.6208 169.238 69.6208C168.39 69.6208 167.763 69.771 167.356 70.0713C166.955 70.3649 166.658 70.8888 166.465 71.6428L164.703 71.4026C164.863 70.6485 165.127 70.0413 165.494 69.5808C165.861 69.1137 166.392 68.7567 167.086 68.5098C167.78 68.2562 168.584 68.1294 169.498 68.1294C170.405 68.1294 171.143 68.2362 171.71 68.4497C172.277 68.6632 172.694 68.9335 172.961 69.2605C173.228 69.5808 173.415 69.9879 173.522 70.4817C173.582 70.7887 173.612 71.3425 173.612 72.1433V74.5457C173.612 76.2206 173.649 77.2817 173.722 77.7288C173.802 78.1692 173.956 78.5929 174.183 79H172.301C172.114 78.6263 171.994 78.1892 171.94 77.6887ZM171.79 73.6648C171.136 73.9317 170.155 74.1586 168.847 74.3455C168.107 74.4522 167.583 74.5723 167.276 74.7058C166.969 74.8393 166.732 75.0361 166.565 75.2964C166.398 75.55 166.315 75.8336 166.315 76.1472C166.315 76.6277 166.495 77.0281 166.855 77.3484C167.222 77.6687 167.756 77.8289 168.457 77.8289C169.151 77.8289 169.768 77.6787 170.309 77.3784C170.849 77.0715 171.246 76.6544 171.5 76.1272C171.693 75.7201 171.79 75.1195 171.79 74.3254V73.6648ZM175.489 75.8269L177.271 75.5466C177.371 76.2607 177.648 76.8079 178.102 77.1882C178.562 77.5686 179.203 77.7588 180.023 77.7588C180.851 77.7588 181.465 77.592 181.865 77.2583C182.266 76.918 182.466 76.5209 182.466 76.0671C182.466 75.6601 182.289 75.3398 181.935 75.1062C181.688 74.946 181.074 74.7425 180.093 74.4956C178.772 74.1619 177.855 73.875 177.341 73.6348C176.834 73.3879 176.447 73.0509 176.18 72.6238C175.919 72.19 175.789 71.7129 175.789 71.1924C175.789 70.7186 175.896 70.2815 176.11 69.8811C176.33 69.474 176.627 69.137 177 68.8701C177.281 68.6632 177.661 68.4897 178.142 68.3496C178.629 68.2028 179.149 68.1294 179.703 68.1294C180.537 68.1294 181.268 68.2495 181.895 68.4897C182.529 68.73 182.996 69.057 183.297 69.4707C183.597 69.8778 183.804 70.425 183.917 71.1123L182.155 71.3525C182.075 70.8053 181.842 70.3783 181.455 70.0713C181.074 69.7643 180.534 69.6108 179.833 69.6108C179.006 69.6108 178.415 69.7476 178.061 70.0212C177.708 70.2948 177.531 70.6152 177.531 70.9822C177.531 71.2157 177.604 71.4259 177.751 71.6128C177.898 71.8063 178.128 71.9665 178.442 72.0933C178.622 72.16 179.153 72.3135 180.033 72.5537C181.308 72.894 182.196 73.1743 182.696 73.3945C183.203 73.6081 183.6 73.9217 183.887 74.3354C184.174 74.7492 184.318 75.263 184.318 75.877C184.318 76.4775 184.141 77.0448 183.787 77.5786C183.44 78.1058 182.936 78.5162 182.276 78.8098C181.615 79.0968 180.868 79.2402 180.033 79.2402C178.652 79.2402 177.598 78.9533 176.87 78.3794C176.15 77.8055 175.689 76.9547 175.489 75.8269ZM186.255 79V64.3257H188.056V69.5908C188.897 68.6165 189.958 68.1294 191.24 68.1294C192.027 68.1294 192.711 68.2862 193.292 68.5999C193.872 68.9068 194.286 69.3339 194.533 69.8811C194.786 70.4283 194.913 71.2224 194.913 72.2634V79H193.111V72.2634C193.111 71.3625 192.915 70.7086 192.521 70.3015C192.134 69.8878 191.583 69.6809 190.869 69.6809C190.335 69.6809 189.832 69.821 189.358 70.1013C188.891 70.3749 188.557 70.7486 188.357 71.2224C188.157 71.6962 188.056 72.3502 188.056 73.1843V79H186.255ZM204.428 79V77.4385C203.6 78.6396 202.476 79.2402 201.054 79.2402C200.427 79.2402 199.84 79.1201 199.293 78.8799C198.752 78.6396 198.348 78.3394 198.081 77.979C197.821 77.612 197.638 77.1649 197.531 76.6377C197.457 76.284 197.421 75.7235 197.421 74.9561V68.3696H199.223V74.2654C199.223 75.2063 199.259 75.8403 199.333 76.1672C199.446 76.641 199.686 77.0147 200.053 77.2883C200.42 77.5553 200.874 77.6887 201.415 77.6887C201.955 77.6887 202.462 77.5519 202.936 77.2783C203.41 76.998 203.744 76.621 203.937 76.1472C204.137 75.6667 204.237 74.9727 204.237 74.0652V68.3696H206.039V79H204.428ZM211.62 79L207.576 68.3696H209.478L211.76 74.7358C212.007 75.4232 212.234 76.1372 212.441 76.8779C212.601 76.3174 212.824 75.6434 213.111 74.856L215.474 68.3696H217.325L213.301 79H211.62Z" fill="white"/>
<path d="M122.187 101V91.0568H125.918C126.677 91.0568 127.286 91.1585 127.742 91.362C128.203 91.561 128.563 91.8707 128.821 92.2912C129.083 92.7072 129.214 93.1436 129.214 93.6003C129.214 94.0253 129.099 94.4255 128.868 94.8008C128.638 95.1761 128.289 95.479 127.824 95.7096C128.425 95.886 128.886 96.1867 129.207 96.6117C129.533 97.0367 129.696 97.5386 129.696 98.1174C129.696 98.5832 129.596 99.0172 129.397 99.4197C129.203 99.8176 128.961 100.125 128.671 100.342C128.382 100.559 128.018 100.724 127.579 100.837C127.145 100.946 126.612 101 125.979 101H122.187ZM123.503 95.2348H125.653C126.237 95.2348 126.655 95.1964 126.908 95.1195C127.243 95.0201 127.494 94.855 127.661 94.6244C127.833 94.3938 127.919 94.1044 127.919 93.7563C127.919 93.4262 127.839 93.1368 127.681 92.8881C127.523 92.6349 127.297 92.4631 127.003 92.3726C126.709 92.2777 126.205 92.2302 125.49 92.2302H123.503V95.2348ZM123.503 99.8266H125.979C126.404 99.8266 126.702 99.8108 126.874 99.7791C127.177 99.7249 127.43 99.6345 127.634 99.5078C127.837 99.3812 128.005 99.1981 128.136 98.9585C128.267 98.7143 128.332 98.4339 128.332 98.1174C128.332 97.7466 128.237 97.4256 128.047 97.1543C127.858 96.8785 127.593 96.6863 127.254 96.5778C126.919 96.4647 126.435 96.4082 125.802 96.4082H123.503V99.8266ZM135.651 101V99.9419C135.091 100.756 134.329 101.163 133.365 101.163C132.94 101.163 132.543 101.081 132.172 100.919C131.806 100.756 131.532 100.552 131.351 100.308C131.175 100.059 131.05 99.7565 130.978 99.3993C130.928 99.1597 130.903 98.7799 130.903 98.2599V93.797H132.124V97.7919C132.124 98.4294 132.149 98.859 132.199 99.0805C132.276 99.4016 132.439 99.6548 132.687 99.8402C132.936 100.021 133.243 100.111 133.61 100.111C133.976 100.111 134.32 100.019 134.641 99.8334C134.962 99.6435 135.188 99.388 135.319 99.067C135.455 98.7414 135.522 98.2712 135.522 97.6562V93.797H136.743V101H135.651ZM138.019 101.597L139.206 101.773C139.256 102.139 139.393 102.406 139.62 102.574C139.922 102.8 140.336 102.913 140.861 102.913C141.426 102.913 141.862 102.8 142.17 102.574C142.477 102.347 142.685 102.031 142.794 101.624C142.857 101.375 142.886 100.853 142.882 100.057C142.348 100.686 141.684 101 140.888 101C139.898 101 139.131 100.643 138.589 99.9284C138.046 99.2139 137.775 98.3571 137.775 97.3578C137.775 96.6705 137.899 96.0374 138.148 95.4587C138.396 94.8754 138.756 94.4255 139.226 94.1089C139.701 93.7924 140.257 93.6342 140.895 93.6342C141.745 93.6342 142.446 93.9778 142.997 94.6651V93.797H144.123V100.023C144.123 101.145 144.008 101.938 143.777 102.404C143.551 102.874 143.189 103.245 142.692 103.516C142.199 103.788 141.591 103.923 140.867 103.923C140.008 103.923 139.314 103.729 138.785 103.34C138.256 102.956 138.001 102.375 138.019 101.597ZM139.029 97.2696C139.029 98.2146 139.217 98.9042 139.592 99.3383C139.968 99.7724 140.438 99.9894 141.003 99.9894C141.564 99.9894 142.034 99.7746 142.414 99.3451C142.794 98.911 142.984 98.2327 142.984 97.3103C142.984 96.4286 142.787 95.7639 142.394 95.3162C142.005 94.8686 141.534 94.6448 140.983 94.6448C140.44 94.6448 139.979 94.8663 139.599 95.3095C139.219 95.7481 139.029 96.4014 139.029 97.2696ZM150.275 101V99.9419C149.715 100.756 148.953 101.163 147.99 101.163C147.565 101.163 147.167 101.081 146.796 100.919C146.43 100.756 146.156 100.552 145.975 100.308C145.799 100.059 145.675 99.7565 145.602 99.3993C145.552 99.1597 145.528 98.7799 145.528 98.2599V93.797H146.748V97.7919C146.748 98.4294 146.773 98.859 146.823 99.0805C146.9 99.4016 147.063 99.6548 147.311 99.8402C147.56 100.021 147.868 100.111 148.234 100.111C148.6 100.111 148.944 100.019 149.265 99.8334C149.586 99.6435 149.812 99.388 149.943 99.067C150.079 98.7414 150.147 98.2712 150.147 97.6562V93.797H151.367V101H150.275ZM152.867 101V93.797H153.966V94.8211C154.495 94.0298 155.259 93.6342 156.258 93.6342C156.692 93.6342 157.09 93.7133 157.452 93.8716C157.818 94.0253 158.092 94.2288 158.272 94.482C158.453 94.7352 158.58 95.0359 158.652 95.3841C158.698 95.6101 158.72 96.0058 158.72 96.571V101H157.499V96.6185C157.499 96.1211 157.452 95.7503 157.357 95.5061C157.262 95.2575 157.092 95.0608 156.848 94.9161C156.609 94.7669 156.326 94.6922 156 94.6922C155.48 94.6922 155.03 94.8573 154.651 95.1874C154.275 95.5175 154.088 96.1437 154.088 97.0661V101H152.867ZM160.498 101V99.6096H161.888V101C161.888 101.511 161.798 101.922 161.617 102.234C161.436 102.551 161.149 102.795 160.755 102.967L160.416 102.445C160.674 102.332 160.864 102.164 160.986 101.943C161.108 101.726 161.176 101.411 161.19 101H160.498ZM171.33 101H170.11V93.2204C169.816 93.5008 169.429 93.7811 168.95 94.0615C168.475 94.3418 168.048 94.5521 167.668 94.6922V93.5121C168.351 93.191 168.947 92.8022 169.458 92.3455C169.969 91.8888 170.331 91.4457 170.544 91.0161H171.33V101ZM177.612 101H176.391V93.2204C176.097 93.5008 175.71 93.7811 175.231 94.0615C174.756 94.3418 174.329 94.5521 173.949 94.6922V93.5121C174.632 93.191 175.229 92.8022 175.74 92.3455C176.251 91.8888 176.612 91.4457 176.825 91.0161H177.612V101ZM181.003 95.1874V93.797H182.394V95.1874H181.003ZM181.003 101V99.6096H182.394V101H181.003ZM183.771 98.3955L185.053 98.287C185.148 98.911 185.367 99.3812 185.711 99.6978C186.059 100.01 186.477 100.166 186.966 100.166C187.554 100.166 188.051 99.9442 188.458 99.5011C188.865 99.0579 189.068 98.4701 189.068 97.7376C189.068 97.0413 188.872 96.4919 188.478 96.0894C188.089 95.687 187.578 95.4858 186.945 95.4858C186.552 95.4858 186.197 95.5762 185.881 95.7571C185.564 95.9334 185.315 96.1641 185.134 96.4489L183.988 96.2997L184.951 91.1925H189.896V92.3591H185.928L185.392 95.0314C185.989 94.6154 186.615 94.4074 187.271 94.4074C188.139 94.4074 188.872 94.7081 189.468 95.3095C190.065 95.9108 190.364 96.684 190.364 97.6291C190.364 98.5289 190.102 99.3066 189.577 99.9623C188.939 100.767 188.069 101.17 186.966 101.17C186.061 101.17 185.322 100.916 184.748 100.41C184.178 99.9035 183.853 99.232 183.771 98.3955ZM191.083 96.0962C191.083 94.9206 191.203 93.9756 191.443 93.2611C191.687 92.5422 192.046 91.9883 192.521 91.5994C193 91.2105 193.602 91.0161 194.325 91.0161C194.859 91.0161 195.327 91.1246 195.729 91.3417C196.132 91.5542 196.464 91.8639 196.726 92.2709C196.989 92.6733 197.194 93.1662 197.343 93.7495C197.493 94.3282 197.567 95.1105 197.567 96.0962C197.567 97.2628 197.447 98.2056 197.208 98.9245C196.968 99.639 196.609 100.193 196.129 100.586C195.655 100.975 195.053 101.17 194.325 101.17C193.367 101.17 192.614 100.826 192.067 100.139C191.411 99.3111 191.083 97.9637 191.083 96.0962ZM192.338 96.0962C192.338 97.7286 192.528 98.816 192.908 99.3586C193.292 99.8967 193.765 100.166 194.325 100.166C194.886 100.166 195.356 99.8944 195.736 99.3518C196.12 98.8092 196.313 97.724 196.313 96.0962C196.313 94.4594 196.12 93.3719 195.736 92.8338C195.356 92.2958 194.881 92.0267 194.312 92.0267C193.751 92.0267 193.303 92.2641 192.969 92.7389C192.548 93.3448 192.338 94.4639 192.338 96.0962Z" fill="white" fill-opacity="0.25"/>
<g clip-path="url(#clip2_1_122)">
<g clip-path="url(#clip3_1_122)">
<path d="M85.1391 43.7295H39.3183C27.2317 43.7295 17.4337 53.5276 17.4337 65.6141V84.0792C17.4337 96.1657 27.2317 105.964 39.3183 105.964H85.1391C97.2256 105.964 107.024 96.1657 107.024 84.0792V65.6141C107.024 53.5276 97.2256 43.7295 85.1391 43.7295Z" fill="black" fill-opacity="0.89"/>
<mask id="mask1_1_122" style="mask-type:luminance" maskUnits="userSpaceOnUse" x="48" y="60" width="30" height="29">
<path d="M77.0595 60H48.336V88.7235H77.0595V60Z" fill="white"/>
</mask>
<g mask="url(#mask1_1_122)">
<path d="M72.3313 74.0762L59.7647 87.5404C59.6316 87.6825 59.4558 87.7774 59.2639 87.8109C59.0721 87.8443 58.8745 87.8145 58.7011 87.7258C58.5277 87.6371 58.3878 87.4945 58.3026 87.3193C58.2174 87.1442 58.1915 86.9461 58.2287 86.755L59.8736 78.5272L53.4074 76.0992C53.2686 76.0473 53.1447 75.9617 53.047 75.8502C52.9492 75.7387 52.8806 75.6048 52.8473 75.4603C52.8139 75.3158 52.8169 75.1654 52.8559 75.0223C52.8949 74.8793 52.9688 74.7481 53.0708 74.6406L65.6374 61.1764C65.7705 61.0343 65.9463 60.9394 66.1382 60.9059C66.33 60.8725 66.5276 60.9023 66.701 60.991C66.8744 61.0797 67.0143 61.2223 67.0995 61.3975C67.1847 61.5726 67.2106 61.7707 67.1734 61.9618L65.524 70.1985L71.9902 72.6232C72.128 72.6755 72.2509 72.7609 72.3479 72.872C72.4449 72.983 72.513 73.1163 72.5463 73.2599C72.5795 73.4035 72.5769 73.5531 72.5386 73.6955C72.5004 73.8379 72.4276 73.9686 72.3268 74.0762H72.3313Z" fill="#47C5FF"/>
</g>
</g>
</g>
<rect x="124.17" y="47" width="8" height="8" rx="4" fill="#47C5FF"/>
<path d="M138.958 54V50.9678L136.199 46.8418H137.352L138.763 49C139.023 49.4036 139.266 49.8073 139.49 50.2109C139.705 49.8366 139.966 49.415 140.272 48.9463L141.658 46.8418H142.762L139.905 50.9678V54H138.958ZM142.683 54L145.432 46.8418H146.453L149.382 54H148.303L147.468 51.832H144.475L143.689 54H142.683ZM144.748 51.0605H147.175L146.428 49.0781C146.2 48.4759 146.031 47.9811 145.92 47.5938C145.829 48.0527 145.701 48.5085 145.535 48.9609L144.748 51.0605ZM150.729 54V46.8418H151.701L155.461 52.4619V46.8418H156.369V54H155.397L151.638 48.375V54H150.729ZM161.915 51.1924V50.3525L164.948 50.3477V53.0039C164.482 53.375 164.002 53.6549 163.507 53.8438C163.012 54.0293 162.504 54.1221 161.984 54.1221C161.281 54.1221 160.641 53.9723 160.065 53.6729C159.492 53.3701 159.059 52.9339 158.766 52.3643C158.473 51.7946 158.326 51.1582 158.326 50.4551C158.326 49.7585 158.471 49.109 158.761 48.5068C159.054 47.9014 159.474 47.4521 160.021 47.1592C160.568 46.8662 161.198 46.7197 161.91 46.7197C162.428 46.7197 162.895 46.8044 163.312 46.9736C163.732 47.1396 164.06 47.3724 164.298 47.6719C164.536 47.9714 164.716 48.362 164.84 48.8438L163.986 49.0781C163.878 48.7135 163.745 48.4271 163.585 48.2188C163.426 48.0104 163.198 47.8444 162.902 47.7207C162.605 47.5938 162.277 47.5303 161.915 47.5303C161.482 47.5303 161.108 47.597 160.792 47.7305C160.476 47.8607 160.221 48.0332 160.026 48.248C159.834 48.4629 159.684 48.6989 159.576 48.9561C159.394 49.3988 159.303 49.8789 159.303 50.3965C159.303 51.0345 159.412 51.5684 159.63 51.998C159.851 52.4277 160.172 52.7467 160.592 52.9551C161.012 53.1634 161.458 53.2676 161.93 53.2676C162.34 53.2676 162.74 53.1895 163.131 53.0332C163.522 52.8737 163.818 52.7044 164.02 52.5254V51.1924H161.915ZM167.11 54V46.8418H168.057V54H167.11Z" fill="#47C5FF"/>
<defs>
<clipPath id="clip0_1_122">
<rect width="74" height="52" fill="white" transform="translate(42 12)"/>
</clipPath>
<clipPath id="clip1_1_122">
<rect width="74" height="52" fill="white" transform="translate(42 12)"/>
</clipPath>
<clipPath id="clip2_1_122">
<rect width="90" height="63" fill="white" transform="translate(17.17 43)"/>
</clipPath>
<clipPath id="clip3_1_122">
<rect width="90" height="63" fill="white" transform="translate(17.17 43)"/>
</clipPath>
</defs>
</svg>
