<svg width="280" height="211" viewBox="0 0 280 211" fill="none" xmlns="http://www.w3.org/2000/svg">
<g clip-path="url(#clip0_1_15)">
<rect width="280" height="211" rx="24" fill="#131313"/>
<g clip-path="url(#clip1_1_15)">
<path d="M21.6205 37V23.6182H26.2989C27.2311 23.6182 27.9999 23.7794 28.6054 24.1017C29.2109 24.4197 29.6617 24.8488 29.958 25.3889C30.2542 25.9247 30.4023 26.5193 30.4023 27.1727C30.4023 27.7477 30.2999 28.2225 30.0952 28.5972C29.8948 28.9718 29.6291 29.268 29.298 29.4858C28.9713 29.7036 28.6163 29.8648 28.233 29.9693V30.1C28.6424 30.1261 29.0541 30.2699 29.4679 30.5313C29.8817 30.7926 30.228 31.1672 30.5068 31.6551C30.7856 32.143 30.925 32.7398 30.925 33.4455C30.925 34.1163 30.7725 34.7196 30.4676 35.2554C30.1627 35.7912 29.6813 36.2159 29.0236 36.5295C28.3658 36.8432 27.5098 37 26.4557 37H21.6205ZM23.2409 35.5625H26.4557C27.5142 35.5625 28.2656 35.3578 28.7099 34.9483C29.1586 34.5345 29.383 34.0335 29.383 33.4455C29.383 32.9924 29.2675 32.5742 29.0366 32.1909C28.8058 31.8032 28.4769 31.4939 28.05 31.2631C27.6231 31.0278 27.1178 30.9102 26.5341 30.9102H23.2409V35.5625ZM23.2409 29.4989H26.2466C26.7345 29.4989 27.1744 29.403 27.5665 29.2114C27.9629 29.0197 28.2765 28.7496 28.5074 28.4011C28.7426 28.0527 28.8602 27.6432 28.8602 27.1727C28.8602 26.5847 28.6555 26.0859 28.246 25.6764C27.8366 25.2626 27.1875 25.0557 26.2989 25.0557H23.2409V29.4989ZM36.9048 37.2091C35.9988 37.2091 35.2038 36.9935 34.5199 36.5622C33.8403 36.131 33.3089 35.5277 32.9256 34.7523C32.5466 33.9769 32.3571 33.0708 32.3571 32.0341C32.3571 30.9886 32.5466 30.076 32.9256 29.2963C33.3089 28.5166 33.8403 27.9111 34.5199 27.4798C35.2038 27.0486 35.9988 26.833 36.9048 26.833C37.8109 26.833 38.6037 27.0486 39.2832 27.4798C39.9671 27.9111 40.4986 28.5166 40.8776 29.2963C41.2609 30.076 41.4526 30.9886 41.4526 32.0341C41.4526 33.0708 41.2609 33.9769 40.8776 34.7523C40.4986 35.5277 39.9671 36.131 39.2832 36.5622C38.6037 36.9935 37.8109 37.2091 36.9048 37.2091ZM36.9048 35.8239C37.5931 35.8239 38.1594 35.6474 38.6037 35.2946C39.048 34.9418 39.3769 34.4778 39.5903 33.9028C39.8038 33.3278 39.9105 32.7049 39.9105 32.0341C39.9105 31.3633 39.8038 30.7382 39.5903 30.1588C39.3769 29.5795 39.048 29.1112 38.6037 28.754C38.1594 28.3968 37.5931 28.2182 36.9048 28.2182C36.2166 28.2182 35.6503 28.3968 35.206 28.754C34.7616 29.1112 34.4328 29.5795 34.2193 30.1588C34.0059 30.7382 33.8991 31.3633 33.8991 32.0341C33.8991 32.7049 34.0059 33.3278 34.2193 33.9028C34.4328 34.4778 34.7616 34.9418 35.206 35.2946C35.6503 35.6474 36.2166 35.8239 36.9048 35.8239ZM50.3645 29.2114L48.9793 29.6034C48.8922 29.3725 48.7637 29.1482 48.5938 28.9304C48.4283 28.7082 48.2018 28.5253 47.9143 28.3815C47.6268 28.2378 47.2587 28.1659 46.81 28.1659C46.1958 28.1659 45.684 28.3075 45.2745 28.5906C44.8694 28.8694 44.6668 29.2244 44.6668 29.6557C44.6668 30.039 44.8062 30.3418 45.085 30.5639C45.3638 30.7861 45.7994 30.9712 46.3918 31.1193L47.8816 31.4852C48.7789 31.703 49.4476 32.0363 49.8876 32.4849C50.3275 32.9293 50.5475 33.5021 50.5475 34.2034C50.5475 34.7784 50.382 35.2924 50.0509 35.7455C49.7242 36.1985 49.2668 36.5557 48.6788 36.817C48.0907 37.0784 47.4068 37.2091 46.627 37.2091C45.6034 37.2091 44.7561 36.9869 44.0853 36.5426C43.4145 36.0983 42.9897 35.4492 42.8111 34.5955L44.2748 34.2295C44.4142 34.7697 44.6777 35.1748 45.0654 35.4449C45.4574 35.715 45.9693 35.85 46.6009 35.85C47.3197 35.85 47.8903 35.6975 48.3128 35.3926C48.7397 35.0833 48.9532 34.7131 48.9532 34.2818C48.9532 33.9333 48.8312 33.6415 48.5873 33.4063C48.3433 33.1667 47.9687 32.9881 47.4634 32.8705L45.7907 32.4784C44.8716 32.2606 44.1964 31.923 43.7651 31.4656C43.3382 31.0039 43.1248 30.4267 43.1248 29.7341C43.1248 29.1678 43.2838 28.6669 43.6018 28.2313C43.9241 27.7956 44.3619 27.4537 44.9151 27.2054C45.4727 26.9571 46.1043 26.833 46.81 26.833C47.8032 26.833 48.5829 27.0508 49.1492 27.4864C49.7199 27.922 50.125 28.497 50.3645 29.2114ZM59.1655 40.7636V35.458H59.0348C58.9215 35.6409 58.7604 35.8718 58.5513 36.1506C58.3422 36.425 58.0438 36.6711 57.6561 36.8889C57.2684 37.1024 56.7522 37.2091 56.1075 37.2091C55.2711 37.2091 54.5328 36.9978 53.8925 36.5753C53.2521 36.1484 52.7512 35.5473 52.3896 34.7719C52.0281 33.9921 51.8473 33.0708 51.8473 32.008C51.8473 30.9538 52.0281 30.039 52.3896 29.2636C52.7512 28.4883 53.2543 27.8893 53.899 27.4668C54.5437 27.0442 55.2886 26.833 56.1336 26.833C56.7871 26.833 57.3032 26.9419 57.6822 27.1597C58.0656 27.3731 58.3574 27.617 58.5578 27.8915C58.7625 28.1616 58.9215 28.3837 59.0348 28.558H59.2177V26.9636H60.7075V40.7636H59.1655ZM56.3166 35.8239C56.9352 35.8239 57.4579 35.6627 57.8848 35.3403C58.3117 35.0136 58.6362 34.5628 58.8584 33.9878C59.0805 33.4084 59.1916 32.7398 59.1916 31.9818C59.1916 31.2326 59.0827 30.577 58.8649 30.0151C58.6471 29.4488 58.3247 29.0088 57.8979 28.6952C57.471 28.3772 56.9439 28.2182 56.3166 28.2182C55.6632 28.2182 55.1187 28.3859 54.6831 28.7213C54.2518 29.0524 53.9273 29.5032 53.7095 30.0739C53.4961 30.6402 53.3893 31.2761 53.3893 31.9818C53.3893 32.6962 53.4982 33.3453 53.716 33.929C53.9382 34.5083 54.2649 34.9701 54.6961 35.3142C55.1318 35.654 55.6719 35.8239 56.3166 35.8239ZM62.9792 37V26.9636H64.5213V37H62.9792ZM63.7633 25.2909C63.4628 25.2909 63.2036 25.1885 62.9858 24.9838C62.7723 24.7791 62.6656 24.533 62.6656 24.2455C62.6656 23.958 62.7723 23.7118 62.9858 23.5071C63.2036 23.3024 63.4628 23.2 63.7633 23.2C64.0639 23.2 64.3209 23.3024 64.5344 23.5071C64.7522 23.7118 64.8611 23.958 64.8611 24.2455C64.8611 24.533 64.7522 24.7791 64.5344 24.9838C64.3209 25.1885 64.0639 25.2909 63.7633 25.2909ZM70.8719 37.2091C69.931 37.2091 69.1208 36.9869 68.4412 36.5426C67.7617 36.0983 67.239 35.4863 66.8731 34.7065C66.5071 33.9268 66.3242 33.036 66.3242 32.0341C66.3242 31.0148 66.5115 30.1152 66.8861 29.3355C67.2651 28.5514 67.7922 27.9394 68.4674 27.4994C69.1469 27.0551 69.9397 26.833 70.8458 26.833C71.5515 26.833 72.1874 26.9636 72.7537 27.225C73.32 27.4864 73.7839 27.8523 74.1455 28.3227C74.507 28.7932 74.7314 29.342 74.8185 29.9693H73.2765C73.1588 29.5119 72.8975 29.1068 72.4924 28.754C72.0916 28.3968 71.5515 28.2182 70.8719 28.2182C70.2708 28.2182 69.7437 28.375 69.2907 28.6886C68.842 28.9979 68.4913 29.4357 68.2387 30.002C67.9904 30.5639 67.8662 31.2239 67.8662 31.9818C67.8662 32.7572 67.9882 33.4324 68.2321 34.0074C68.4804 34.5824 68.8289 35.0289 69.2776 35.3469C69.7306 35.6649 70.2621 35.8239 70.8719 35.8239C71.2727 35.8239 71.6364 35.7542 71.9631 35.6148C72.2898 35.4754 72.5664 35.275 72.7929 35.0136C73.0195 34.7523 73.1806 34.4386 73.2765 34.0727H74.8185C74.7314 34.6652 74.5158 35.1988 74.1716 35.6736C73.8319 36.144 73.381 36.5187 72.8191 36.7974C72.2615 37.0719 71.6124 37.2091 70.8719 37.2091ZM78.0638 30.9625V37H76.5218V23.6182H78.0638V28.5318H78.1945C78.4297 28.0134 78.7826 27.6018 79.253 27.2969C79.7278 26.9876 80.3595 26.833 81.1479 26.833C81.8318 26.833 82.4308 26.9702 82.9448 27.2446C83.4588 27.5147 83.8574 27.9307 84.1405 28.4926C84.428 29.0502 84.5718 29.7602 84.5718 30.6227V37H83.0297V30.7273C83.0297 29.9301 82.8228 29.3137 82.409 28.8781C81.9995 28.4382 81.431 28.2182 80.7036 28.2182C80.1983 28.2182 79.7453 28.3249 79.3445 28.5384C78.9481 28.7518 78.6345 29.0633 78.4036 29.4727C78.1771 29.8822 78.0638 30.3788 78.0638 30.9625ZM88.3839 23.6182V37H86.8419V23.6182H88.3839ZM93.6107 37.2352C92.9747 37.2352 92.3975 37.1154 91.8791 36.8759C91.3608 36.6319 90.9491 36.2813 90.6442 35.8239C90.3393 35.3621 90.1868 34.8045 90.1868 34.1511C90.1868 33.5761 90.3001 33.11 90.5266 32.7528C90.7531 32.3913 91.0558 32.1081 91.4348 31.9034C91.8138 31.6987 92.232 31.5462 92.6894 31.446C93.1511 31.3415 93.615 31.2587 94.0811 31.1977C94.691 31.1193 95.1854 31.0605 95.5644 31.0213C95.9477 30.9777 96.2265 30.9059 96.4007 30.8057C96.5793 30.7055 96.6686 30.5312 96.6686 30.283V30.2307C96.6686 29.586 96.4922 29.085 96.1394 28.7278C95.7909 28.3706 95.2616 28.192 94.5516 28.192C93.8154 28.192 93.2382 28.3532 92.8201 28.6756C92.4019 28.9979 92.1078 29.342 91.9379 29.708L90.4743 29.1852C90.7357 28.5754 91.0842 28.1006 91.5198 27.7608C91.9597 27.4167 92.4389 27.1771 92.9573 27.042C93.48 26.9027 93.994 26.833 94.4993 26.833C94.8217 26.833 95.1919 26.8722 95.6101 26.9506C96.0326 27.0246 96.4399 27.1793 96.832 27.4145C97.2284 27.6497 97.5573 28.0047 97.8186 28.4795C98.08 28.9544 98.2107 29.5903 98.2107 30.3875V37H96.6686V35.6409H96.5902C96.4857 35.8587 96.3114 36.0918 96.0675 36.3401C95.8236 36.5884 95.499 36.7996 95.0939 36.9739C94.6888 37.1481 94.1944 37.2352 93.6107 37.2352ZM93.8459 35.85C94.4558 35.85 94.9698 35.7302 95.3879 35.4906C95.8105 35.251 96.1285 34.9418 96.3419 34.5628C96.5597 34.1838 96.6686 33.7852 96.6686 33.367V31.9557C96.6033 32.0341 96.4595 32.106 96.2374 32.1713C96.0196 32.2323 95.7669 32.2867 95.4794 32.3347C95.1963 32.3782 94.9197 32.4174 94.6496 32.4523C94.3839 32.4828 94.1683 32.5089 94.0027 32.5307C93.602 32.583 93.2273 32.6679 92.8789 32.7855C92.5347 32.8988 92.2559 33.0708 92.0425 33.3017C91.8334 33.5282 91.7289 33.8375 91.7289 34.2295C91.7289 34.7653 91.9271 35.1705 92.3235 35.4449C92.7242 35.715 93.2317 35.85 93.8459 35.85ZM100.474 37V26.9636H101.964V28.4795H102.069C102.252 27.983 102.583 27.58 103.062 27.2707C103.541 26.9615 104.081 26.8068 104.682 26.8068C104.795 26.8068 104.937 26.809 105.107 26.8134C105.277 26.8177 105.405 26.8242 105.492 26.833V28.4011C105.44 28.3881 105.32 28.3685 105.133 28.3423C104.95 28.3118 104.756 28.2966 104.552 28.2966C104.064 28.2966 103.628 28.399 103.245 28.6037C102.866 28.8041 102.565 29.0829 102.343 29.4401C102.125 29.7929 102.016 30.1958 102.016 30.6489V37H100.474Z" fill="#47C5FF"/>
</g>
<path d="M235.807 186.36V179.524H233.254V178.609H239.397V179.524H236.833V186.36H235.807ZM238.444 183.553C238.444 182.513 238.733 181.743 239.311 181.242C239.794 180.826 240.382 180.618 241.077 180.618C241.849 180.618 242.479 180.872 242.969 181.38C243.459 181.884 243.704 182.582 243.704 183.473C243.704 184.196 243.595 184.765 243.377 185.181C243.162 185.593 242.846 185.914 242.43 186.143C242.018 186.372 241.567 186.487 241.077 186.487C240.291 186.487 239.654 186.235 239.168 185.731C238.685 185.227 238.444 184.501 238.444 183.553ZM239.422 183.553C239.422 184.272 239.579 184.811 239.892 185.17C240.206 185.526 240.601 185.704 241.077 185.704C241.549 185.704 241.942 185.525 242.256 185.165C242.569 184.806 242.726 184.258 242.726 183.521C242.726 182.827 242.568 182.301 242.25 181.945C241.937 181.586 241.545 181.406 241.077 181.406C240.601 181.406 240.206 181.584 239.892 181.94C239.579 182.296 239.422 182.834 239.422 183.553ZM248.138 186.36V185.652C247.782 186.209 247.259 186.487 246.568 186.487C246.12 186.487 245.708 186.364 245.331 186.117C244.957 185.87 244.666 185.526 244.458 185.086C244.254 184.642 244.152 184.132 244.152 183.558C244.152 182.997 244.245 182.49 244.432 182.035C244.619 181.577 244.899 181.226 245.272 180.983C245.646 180.74 246.064 180.618 246.525 180.618C246.864 180.618 247.165 180.69 247.43 180.835C247.694 180.976 247.909 181.161 248.075 181.39V178.609H249.021V186.36H248.138ZM245.13 183.558C245.13 184.277 245.281 184.814 245.584 185.17C245.887 185.526 246.245 185.704 246.658 185.704C247.074 185.704 247.426 185.535 247.715 185.197C248.008 184.855 248.154 184.335 248.154 183.637C248.154 182.869 248.006 182.305 247.71 181.945C247.414 181.586 247.049 181.406 246.615 181.406C246.192 181.406 245.838 181.579 245.553 181.924C245.271 182.27 245.13 182.814 245.13 183.558ZM253.857 185.667C253.504 185.967 253.164 186.179 252.836 186.302C252.512 186.425 252.163 186.487 251.789 186.487C251.172 186.487 250.698 186.337 250.367 186.038C250.036 185.734 249.87 185.348 249.87 184.88C249.87 184.605 249.932 184.355 250.055 184.129C250.182 183.9 250.346 183.717 250.547 183.579C250.751 183.442 250.98 183.338 251.234 183.267C251.421 183.218 251.703 183.17 252.08 183.124C252.849 183.033 253.414 182.923 253.777 182.797C253.781 182.666 253.783 182.583 253.783 182.548C253.783 182.16 253.693 181.887 253.513 181.729C253.27 181.514 252.908 181.406 252.429 181.406C251.981 181.406 251.65 181.485 251.435 181.644C251.224 181.799 251.067 182.076 250.965 182.474L250.034 182.347C250.119 181.949 250.258 181.628 250.452 181.385C250.646 181.138 250.926 180.95 251.292 180.819C251.659 180.685 252.084 180.618 252.567 180.618C253.046 180.618 253.435 180.675 253.735 180.787C254.035 180.9 254.255 181.043 254.396 181.216C254.537 181.385 254.636 181.6 254.692 181.861C254.724 182.023 254.74 182.315 254.74 182.738V184.007C254.74 184.892 254.759 185.452 254.798 185.689C254.84 185.921 254.921 186.145 255.041 186.36H254.047C253.948 186.163 253.885 185.932 253.857 185.667ZM253.777 183.542C253.432 183.683 252.914 183.803 252.223 183.902C251.832 183.958 251.555 184.021 251.393 184.092C251.231 184.162 251.105 184.266 251.017 184.404C250.929 184.538 250.885 184.688 250.885 184.853C250.885 185.107 250.98 185.319 251.171 185.488C251.365 185.657 251.647 185.742 252.017 185.742C252.383 185.742 252.709 185.662 252.995 185.504C253.28 185.341 253.49 185.121 253.624 184.843C253.726 184.628 253.777 184.31 253.777 183.891V183.542ZM255.848 188.523L255.742 187.629C255.95 187.685 256.131 187.714 256.286 187.714C256.498 187.714 256.667 187.678 256.794 187.608C256.921 187.537 257.025 187.439 257.106 187.312C257.166 187.217 257.263 186.98 257.397 186.603C257.414 186.55 257.443 186.473 257.481 186.371L255.351 180.745H256.376L257.545 183.997C257.696 184.409 257.832 184.843 257.952 185.297C258.061 184.86 258.192 184.434 258.343 184.018L259.543 180.745H260.495L258.359 186.455C258.13 187.072 257.952 187.497 257.825 187.729C257.656 188.043 257.462 188.272 257.243 188.417C257.025 188.565 256.764 188.639 256.461 188.639C256.278 188.639 256.073 188.6 255.848 188.523Z" fill="white" fill-opacity="0.21"/>
<path d="M121.025 186.36V178.609H122.077L126.148 184.695V178.609H127.131V186.36H126.079L122.008 180.269V186.36H121.025ZM128.055 183.553C128.055 182.513 128.344 181.743 128.922 181.242C129.405 180.826 129.993 180.618 130.688 180.618C131.459 180.618 132.09 180.872 132.58 181.38C133.07 181.884 133.315 182.582 133.315 183.473C133.315 184.196 133.206 184.765 132.987 185.181C132.772 185.593 132.457 185.914 132.041 186.143C131.629 186.372 131.178 186.487 130.688 186.487C129.902 186.487 129.265 186.235 128.779 185.731C128.296 185.227 128.055 184.501 128.055 183.553ZM129.033 183.553C129.033 184.272 129.19 184.811 129.503 185.17C129.817 185.526 130.212 185.704 130.688 185.704C131.16 185.704 131.553 185.525 131.867 185.165C132.18 184.806 132.337 184.258 132.337 183.521C132.337 182.827 132.179 182.301 131.861 181.945C131.548 181.586 131.156 181.406 130.688 181.406C130.212 181.406 129.817 181.584 129.503 181.94C129.19 182.296 129.033 182.834 129.033 183.553ZM135.666 186.36L133.53 180.745H134.534L135.74 184.108C135.87 184.471 135.99 184.848 136.099 185.239C136.184 184.943 136.302 184.587 136.454 184.171L137.701 180.745H138.68L136.554 186.36H135.666ZM138.635 186.36V185.276H139.719V186.36C139.719 186.758 139.648 187.079 139.507 187.322C139.366 187.569 139.143 187.759 138.836 187.893L138.572 187.486C138.773 187.398 138.921 187.268 139.016 187.095C139.111 186.926 139.164 186.681 139.174 186.36H138.635ZM147.074 186.36H146.123V180.296C145.893 180.514 145.592 180.733 145.219 180.951C144.848 181.17 144.515 181.334 144.219 181.443V180.523C144.751 180.273 145.217 179.97 145.615 179.614C146.013 179.258 146.295 178.912 146.461 178.577H147.074V186.36ZM151.968 186.36H151.016V180.296C150.787 180.514 150.486 180.733 150.112 180.951C149.742 181.17 149.409 181.334 149.113 181.443V180.523C149.645 180.273 150.11 179.97 150.509 179.614C150.907 179.258 151.189 178.912 151.355 178.577H151.968V186.36Z" fill="white" fill-opacity="0.21"/>
<path d="M29.8248 186V178.249H30.8769L34.9481 184.335V178.249H35.9315V186H34.8793L30.8082 179.909V186H29.8248ZM36.8545 183.193C36.8545 182.153 37.1436 181.383 37.7216 180.882C38.2045 180.466 38.7932 180.258 39.4876 180.258C40.2595 180.258 40.8904 180.512 41.3804 181.019C41.8703 181.524 42.1153 182.221 42.1153 183.113C42.1153 183.836 42.006 184.405 41.7875 184.821C41.5725 185.233 41.257 185.554 40.8411 185.783C40.4287 186.012 39.9775 186.127 39.4876 186.127C38.7015 186.127 38.0653 185.875 37.5789 185.371C37.096 184.867 36.8545 184.141 36.8545 183.193ZM37.8327 183.193C37.8327 183.912 37.9895 184.451 38.3032 184.81C38.6169 185.166 39.0117 185.344 39.4876 185.344C39.9599 185.344 40.3529 185.165 40.6666 184.805C40.9803 184.446 41.1371 183.897 41.1371 183.161C41.1371 182.466 40.9785 181.941 40.6613 181.585C40.3476 181.226 39.9563 181.046 39.4876 181.046C39.0117 181.046 38.6169 181.224 38.3032 181.58C37.9895 181.936 37.8327 182.473 37.8327 183.193ZM42.8639 188.162L42.7581 187.269C42.9661 187.325 43.1476 187.354 43.3027 187.354C43.5142 187.354 43.6834 187.318 43.8103 187.248C43.9372 187.177 44.0411 187.079 44.1222 186.952C44.1821 186.857 44.2791 186.62 44.413 186.243C44.4306 186.19 44.4588 186.113 44.4976 186.011L42.3669 180.385H43.3926L44.561 183.637C44.7126 184.049 44.8483 184.483 44.9682 184.937C45.0774 184.5 45.2078 184.074 45.3594 183.658L46.5596 180.385H47.5113L45.3753 186.095C45.1462 186.712 44.9682 187.137 44.8413 187.369C44.6721 187.683 44.4782 187.912 44.2597 188.057C44.0411 188.205 43.7803 188.279 43.4772 188.279C43.2939 188.279 43.0894 188.24 42.8639 188.162ZM47.4351 186V184.916H48.5189V186C48.5189 186.398 48.4484 186.719 48.3074 186.962C48.1665 187.209 47.9426 187.399 47.636 187.533L47.3716 187.126C47.5725 187.038 47.7206 186.908 47.8157 186.735C47.9109 186.566 47.9638 186.321 47.9744 186H47.4351ZM55.8743 186H54.9226V179.936C54.6935 180.154 54.3921 180.373 54.0185 180.591C53.6484 180.81 53.3153 180.974 53.0192 181.083V180.163C53.5515 179.913 54.0167 179.61 54.415 179.254C54.8133 178.898 55.0953 178.552 55.261 178.217H55.8743V186ZM57.987 182.177C57.987 181.261 58.0804 180.524 58.2672 179.967C58.4575 179.407 58.7377 178.975 59.1078 178.672C59.4815 178.369 59.9503 178.217 60.5142 178.217C60.9301 178.217 61.295 178.302 61.6087 178.471C61.9224 178.637 62.1814 178.878 62.3859 179.195C62.5903 179.509 62.7507 179.893 62.867 180.348C62.9833 180.799 63.0415 181.409 63.0415 182.177C63.0415 183.087 62.9481 183.822 62.7613 184.382C62.5745 184.939 62.2942 185.371 61.9206 185.677C61.5505 185.981 61.0817 186.132 60.5142 186.132C59.767 186.132 59.1801 185.864 58.7536 185.329C58.2425 184.683 57.987 183.633 57.987 182.177ZM58.9651 182.177C58.9651 183.45 59.1131 184.298 59.4092 184.721C59.7088 185.14 60.0772 185.35 60.5142 185.35C60.9513 185.35 61.3179 185.138 61.614 184.715C61.9136 184.292 62.0634 183.446 62.0634 182.177C62.0634 180.901 61.9136 180.054 61.614 179.634C61.3179 179.215 60.9478 179.005 60.5037 179.005C60.0666 179.005 59.7176 179.19 59.4568 179.56C59.129 180.033 58.9651 180.905 58.9651 182.177Z" fill="white" fill-opacity="0.21"/>
<rect width="2" height="119" transform="translate(23 69)" fill="#35DDFF" fill-opacity="0.1"/>
<rect width="2" height="119" transform="translate(115 69)" fill="#35DDFF" fill-opacity="0.1"/>
<rect width="2" height="119" transform="translate(224 69)" fill="#35DDFF" fill-opacity="0.1"/>
<g filter="url(#filter0_f_1_15)">
<rect x="130" y="31.0901" width="146" height="153.04" rx="73" fill="white" fill-opacity="0.08"/>
</g>
<rect x="20" y="119" width="9" height="22" rx="4.5" fill="url(#paint0_linear_1_15)"/>
<rect x="39" y="125" width="9" height="22" rx="4.5" fill="url(#paint1_linear_1_15)"/>
<rect x="57" y="105" width="9" height="43" rx="4.5" fill="url(#paint2_linear_1_15)"/>
<rect x="75" y="99" width="9" height="49" rx="4.5" fill="url(#paint3_linear_1_15)"/>
<rect x="94" y="102" width="9" height="29" rx="4.5" fill="url(#paint4_linear_1_15)"/>
<rect x="112" y="88" width="9" height="53" rx="4.5" fill="url(#paint5_linear_1_15)"/>
<rect x="130.5" y="108" width="9" height="40" rx="4.5" fill="url(#paint6_linear_1_15)"/>
<rect x="148.5" y="118" width="9" height="48" rx="4.5" fill="url(#paint7_linear_1_15)"/>
<rect x="168" y="102" width="9" height="56" rx="4.5" fill="url(#paint8_linear_1_15)"/>
<rect x="185" y="63" width="9" height="78" rx="4.5" fill="url(#paint9_linear_1_15)"/>
<rect x="203" y="75" width="9" height="40" rx="4.5" fill="url(#paint10_linear_1_15)"/>
<rect x="221" y="82" width="9" height="36" rx="4.5" fill="url(#paint11_linear_1_15)"/>
<rect x="239" y="102" width="9" height="32" rx="4.5" fill="url(#paint12_linear_1_15)"/>
<rect x="0.5" y="0.5" width="279" height="210" rx="23.5" stroke="white" stroke-opacity="0.06"/>
</g>
<defs>
<filter id="filter0_f_1_15" x="98.8889" y="-0.0210114" width="208.222" height="215.262" filterUnits="userSpaceOnUse" color-interpolation-filters="sRGB">
<feFlood flood-opacity="0" result="BackgroundImageFix"/>
<feBlend mode="normal" in="SourceGraphic" in2="BackgroundImageFix" result="shape"/>
<feGaussianBlur stdDeviation="15.5555" result="effect1_foregroundBlur_1_15"/>
</filter>
<linearGradient id="paint0_linear_1_15" x1="24.5" y1="119" x2="24.5" y2="141" gradientUnits="userSpaceOnUse">
<stop stop-color="#44CAFF"/>
<stop offset="1" stop-color="#1F5FA7"/>
</linearGradient>
<linearGradient id="paint1_linear_1_15" x1="43.5" y1="125" x2="43.5" y2="147" gradientUnits="userSpaceOnUse">
<stop stop-color="#44CAFF"/>
<stop offset="1" stop-color="#1F5FA7"/>
</linearGradient>
<linearGradient id="paint2_linear_1_15" x1="61.5" y1="105" x2="61.5" y2="148" gradientUnits="userSpaceOnUse">
<stop stop-color="#3AC7FF"/>
<stop offset="1" stop-color="#0A4290"/>
</linearGradient>
<linearGradient id="paint3_linear_1_15" x1="79.5" y1="99" x2="79.5" y2="148" gradientUnits="userSpaceOnUse">
<stop stop-color="#44CAFF"/>
<stop offset="1" stop-color="#1F5FA7"/>
</linearGradient>
<linearGradient id="paint4_linear_1_15" x1="98.5" y1="102" x2="98.5" y2="131" gradientUnits="userSpaceOnUse">
<stop stop-color="#44CAFF"/>
<stop offset="1" stop-color="#1F5FA7"/>
</linearGradient>
<linearGradient id="paint5_linear_1_15" x1="116.5" y1="88" x2="116.5" y2="141" gradientUnits="userSpaceOnUse">
<stop stop-color="#44CAFF"/>
<stop offset="1" stop-color="#1F5FA7"/>
</linearGradient>
<linearGradient id="paint6_linear_1_15" x1="135" y1="108" x2="135" y2="148" gradientUnits="userSpaceOnUse">
<stop stop-color="#44CAFF"/>
<stop offset="1" stop-color="#1F5FA7"/>
</linearGradient>
<linearGradient id="paint7_linear_1_15" x1="153" y1="118" x2="153" y2="166" gradientUnits="userSpaceOnUse">
<stop stop-color="#44CAFF"/>
<stop offset="1" stop-color="#1F5FA7"/>
</linearGradient>
<linearGradient id="paint8_linear_1_15" x1="172.5" y1="102" x2="172.5" y2="158" gradientUnits="userSpaceOnUse">
<stop stop-color="#44CAFF"/>
<stop offset="1" stop-color="#1F5FA7"/>
</linearGradient>
<linearGradient id="paint9_linear_1_15" x1="189.5" y1="63" x2="189.5" y2="141" gradientUnits="userSpaceOnUse">
<stop stop-color="#44CAFF"/>
<stop offset="1" stop-color="#1F5FA7"/>
</linearGradient>
<linearGradient id="paint10_linear_1_15" x1="207.5" y1="75" x2="207.5" y2="115" gradientUnits="userSpaceOnUse">
<stop stop-color="#44CAFF"/>
<stop offset="1" stop-color="#1F5FA7"/>
</linearGradient>
<linearGradient id="paint11_linear_1_15" x1="225.5" y1="82" x2="225.5" y2="118" gradientUnits="userSpaceOnUse">
<stop stop-color="#44CAFF"/>
<stop offset="1" stop-color="#1F5FA7"/>
</linearGradient>
<linearGradient id="paint12_linear_1_15" x1="243.5" y1="102" x2="243.5" y2="134" gradientUnits="userSpaceOnUse">
<stop stop-color="#44CAFF"/>
<stop offset="1" stop-color="#1F5FA7"/>
</linearGradient>
<clipPath id="clip0_1_15">
<rect width="280" height="211" rx="24" fill="white"/>
</clipPath>
<clipPath id="clip1_1_15">
<rect width="86.72" height="21.13" fill="white" transform="translate(20 20)"/>
</clipPath>
</defs>
</svg>
