<svg width="329" height="243" viewBox="0 0 329 243" fill="none" xmlns="http://www.w3.org/2000/svg">
<g clip-path="url(#clip0_1_50)">
<g clip-path="url(#clip1_1_50)">
<path d="M0.833984 228.501C11.1022 215.66 40.6232 191.263 56.0255 187.411C71.4278 183.559 85.5466 187.411 97.0983 178.423C108.65 169.434 108.65 159.162 121.485 156.594C134.32 154.026 148.439 172.002 163.842 166.866C179.244 161.73 188.228 141.186 193.363 115.505C198.497 89.824 197.334 16.5008 247.334 16.5008C297.334 16.5008 307.834 -64.5 307.834 -82" stroke="#292929" stroke-width="4.66666"/>
</g>
<rect x="187" y="83" width="16" height="16" rx="8" fill="#47C4FF"/>
<rect x="171" y="66" width="49" height="49" rx="24.5" fill="#58ACFF" fill-opacity="0.15"/>
<g filter="url(#filter0_f_1_50)">
<rect x="112" width="166" height="174" rx="83" fill="white" fill-opacity="0.06"/>
</g>
<path d="M25.4139 119.42V121H16.5661C16.5539 120.604 16.6179 120.224 16.7579 119.859C16.9831 119.256 17.3422 118.662 17.8353 118.078C18.3345 117.494 19.0528 116.818 19.9902 116.051C21.445 114.858 22.4281 113.914 22.9395 113.221C23.4508 112.52 23.7064 111.86 23.7064 111.239C23.7064 110.588 23.4721 110.04 23.0034 109.596C22.5407 109.145 21.9351 108.92 21.1863 108.92C20.395 108.92 19.7619 109.157 19.2871 109.632C18.8123 110.107 18.5719 110.764 18.5658 111.604L16.8766 111.431C16.9922 110.171 17.4275 109.212 18.1823 108.555C18.9371 107.891 19.9506 107.559 21.2229 107.559C22.5073 107.559 23.5238 107.915 24.2726 108.628C25.0213 109.34 25.3957 110.223 25.3957 111.276C25.3957 111.811 25.2861 112.338 25.0669 112.855C24.8478 113.373 24.4826 113.917 23.9712 114.49C23.466 115.062 22.6229 115.847 21.442 116.845C20.4559 117.673 19.8228 118.236 19.5428 118.535C19.2628 118.827 19.0314 119.122 18.8488 119.42H25.4139Z" fill="white" fill-opacity="0.08"/>
<path d="M69.3054 113.741C68.6236 113.491 68.1184 113.135 67.7896 112.673C67.4609 112.21 67.2966 111.656 67.2966 111.011C67.2966 110.037 67.6466 109.218 68.3466 108.555C69.0467 107.891 69.978 107.559 71.1407 107.559C72.3094 107.559 73.2499 107.9 73.9621 108.582C74.6743 109.258 75.0304 110.083 75.0304 111.056C75.0304 111.677 74.8661 112.219 74.5374 112.682C74.2147 113.138 73.7217 113.491 73.0582 113.741C73.8799 114.009 74.5039 114.441 74.93 115.038C75.3622 115.634 75.5783 116.346 75.5783 117.174C75.5783 118.319 75.1735 119.28 74.3639 120.06C73.5543 120.839 72.489 121.228 71.1681 121.228C69.8471 121.228 68.7819 120.839 67.9723 120.06C67.1627 119.274 66.7579 118.297 66.7579 117.129C66.7579 116.258 66.977 115.531 67.4153 114.946C67.8597 114.356 68.4897 113.954 69.3054 113.741ZM68.9767 110.956C68.9767 111.589 69.1806 112.107 69.5884 112.508C69.9963 112.91 70.5259 113.111 71.1772 113.111C71.8103 113.111 72.3277 112.913 72.7294 112.517C73.1373 112.116 73.3412 111.626 73.3412 111.047C73.3412 110.445 73.1312 109.939 72.7112 109.532C72.2972 109.118 71.7798 108.911 71.1589 108.911C70.532 108.911 70.0115 109.112 69.5976 109.513C69.1836 109.915 68.9767 110.396 68.9767 110.956ZM68.4471 117.138C68.4471 117.606 68.5566 118.06 68.7758 118.498C69.001 118.936 69.3328 119.277 69.771 119.521C70.2093 119.758 70.6811 119.877 71.1863 119.877C71.9716 119.877 72.6199 119.624 73.1312 119.119C73.6425 118.614 73.8982 117.972 73.8982 117.192C73.8982 116.401 73.6334 115.747 73.1038 115.229C72.5803 114.712 71.9229 114.453 71.1315 114.453C70.3585 114.453 69.7163 114.709 69.2049 115.22C68.6997 115.731 68.4471 116.371 68.4471 117.138Z" fill="white" fill-opacity="0.08"/>
<path d="M116.785 117.466L118.429 117.247C118.618 118.179 118.937 118.851 119.388 119.265C119.844 119.673 120.398 119.877 121.049 119.877C121.822 119.877 122.474 119.609 123.003 119.073C123.539 118.538 123.807 117.874 123.807 117.083C123.807 116.328 123.56 115.707 123.067 115.22C122.574 114.727 121.947 114.481 121.186 114.481C120.876 114.481 120.489 114.541 120.027 114.663L120.209 113.221C120.319 113.233 120.407 113.239 120.474 113.239C121.174 113.239 121.804 113.056 122.364 112.691C122.924 112.326 123.204 111.763 123.204 111.002C123.204 110.399 123 109.9 122.592 109.504C122.185 109.109 121.658 108.911 121.013 108.911C120.374 108.911 119.841 109.112 119.415 109.513C118.989 109.915 118.715 110.518 118.593 111.321L116.95 111.029C117.15 109.927 117.607 109.075 118.319 108.472C119.031 107.864 119.917 107.559 120.976 107.559C121.707 107.559 122.379 107.718 122.994 108.034C123.609 108.345 124.078 108.771 124.4 109.312C124.729 109.854 124.893 110.43 124.893 111.038C124.893 111.617 124.738 112.143 124.428 112.618C124.117 113.093 123.658 113.47 123.049 113.75C123.84 113.933 124.455 114.313 124.893 114.891C125.332 115.464 125.551 116.182 125.551 117.046C125.551 118.215 125.125 119.207 124.273 120.023C123.42 120.833 122.343 121.237 121.04 121.237C119.865 121.237 118.888 120.887 118.109 120.187C117.336 119.487 116.895 118.58 116.785 117.466ZM126.625 117.494L128.351 117.348C128.479 118.188 128.774 118.821 129.237 119.247C129.705 119.667 130.269 119.877 130.926 119.877C131.717 119.877 132.387 119.579 132.935 118.982C133.483 118.386 133.757 117.594 133.757 116.608C133.757 115.671 133.492 114.931 132.962 114.389C132.439 113.847 131.751 113.577 130.899 113.577C130.369 113.577 129.891 113.698 129.465 113.942C129.039 114.179 128.704 114.49 128.461 114.873L126.917 114.672L128.214 107.797H134.87V109.367H129.529L128.808 112.965C129.611 112.405 130.454 112.125 131.337 112.125C132.506 112.125 133.492 112.53 134.295 113.339C135.099 114.149 135.5 115.19 135.5 116.462C135.5 117.673 135.147 118.72 134.441 119.603C133.583 120.687 132.411 121.228 130.926 121.228C129.708 121.228 128.713 120.887 127.94 120.206C127.173 119.524 126.735 118.62 126.625 117.494Z" fill="white" fill-opacity="0.08"/>
<path d="M170.79 121V117.795H164.983V116.288L171.091 107.614H172.433V116.288H174.241V117.795H172.433V121H170.79ZM170.79 116.288V110.253L166.599 116.288H170.79ZM175.37 117.494L177.096 117.348C177.224 118.188 177.519 118.821 177.982 119.247C178.451 119.667 179.014 119.877 179.671 119.877C180.462 119.877 181.132 119.579 181.68 118.982C182.228 118.386 182.502 117.594 182.502 116.608C182.502 115.671 182.237 114.931 181.707 114.389C181.184 113.847 180.496 113.577 179.644 113.577C179.114 113.577 178.636 113.698 178.21 113.942C177.784 114.179 177.449 114.49 177.206 114.873L175.663 114.672L176.959 107.797H183.616V109.367H178.274L177.553 112.965C178.356 112.405 179.199 112.125 180.082 112.125C181.251 112.125 182.237 112.53 183.04 113.339C183.844 114.149 184.246 115.19 184.246 116.462C184.246 117.673 183.893 118.72 183.186 119.603C182.328 120.687 181.156 121.228 179.671 121.228C178.454 121.228 177.458 120.887 176.685 120.206C175.918 119.524 175.48 118.62 175.37 117.494Z" fill="white" fill-opacity="0.08"/>
<path d="M224.776 117.024L226.502 116.878C226.63 117.718 226.925 118.351 227.388 118.777C227.856 119.197 228.419 119.407 229.077 119.407C229.868 119.407 230.538 119.109 231.086 118.512C231.633 117.916 231.907 117.124 231.907 116.138C231.907 115.201 231.643 114.461 231.113 113.919C230.589 113.378 229.902 113.107 229.049 113.107C228.52 113.107 228.042 113.228 227.616 113.472C227.19 113.709 226.855 114.02 226.611 114.403L225.068 114.202L226.365 107.327H233.021V108.897H227.68L226.958 112.495C227.762 111.935 228.605 111.655 229.488 111.655C230.656 111.655 231.643 112.06 232.446 112.869C233.25 113.679 233.651 114.72 233.651 115.992C233.651 117.203 233.298 118.25 232.592 119.133C231.734 120.217 230.562 120.758 229.077 120.758C227.859 120.758 226.864 120.417 226.091 119.736C225.324 119.054 224.886 118.15 224.776 117.024ZM234.625 117.024L236.351 116.878C236.479 117.718 236.774 118.351 237.237 118.777C237.705 119.197 238.269 119.407 238.926 119.407C239.717 119.407 240.387 119.109 240.935 118.512C241.483 117.916 241.757 117.124 241.757 116.138C241.757 115.201 241.492 114.461 240.962 113.919C240.439 113.378 239.751 113.107 238.899 113.107C238.369 113.107 237.891 113.228 237.465 113.472C237.039 113.709 236.704 114.02 236.461 114.403L234.917 114.202L236.214 107.327H242.87V108.897H237.529L236.808 112.495C237.611 111.935 238.454 111.655 239.337 111.655C240.506 111.655 241.492 112.06 242.295 112.869C243.099 113.679 243.5 114.72 243.5 115.992C243.5 117.203 243.147 118.25 242.441 119.133C241.583 120.217 240.411 120.758 238.926 120.758C237.708 120.758 236.713 120.417 235.94 119.736C235.173 119.054 234.735 118.15 234.625 117.024Z" fill="white" fill-opacity="0.08"/>
<path d="M282.967 121H281.323V110.527C280.928 110.904 280.407 111.282 279.762 111.659C279.123 112.037 278.548 112.32 278.036 112.508V110.92C278.955 110.487 279.759 109.964 280.447 109.349C281.135 108.734 281.622 108.138 281.908 107.559H282.967V121ZM286.625 114.398C286.625 112.816 286.787 111.543 287.109 110.582C287.438 109.614 287.922 108.868 288.561 108.345C289.206 107.821 290.016 107.559 290.99 107.559C291.708 107.559 292.338 107.705 292.88 107.998C293.422 108.284 293.869 108.701 294.222 109.249C294.575 109.79 294.852 110.454 295.053 111.239C295.254 112.018 295.354 113.071 295.354 114.398C295.354 115.969 295.193 117.238 294.87 118.206C294.548 119.168 294.064 119.913 293.419 120.443C292.78 120.967 291.97 121.228 290.99 121.228C289.699 121.228 288.686 120.766 287.949 119.84C287.067 118.726 286.625 116.912 286.625 114.398ZM288.315 114.398C288.315 116.596 288.57 118.06 289.082 118.79C289.599 119.515 290.235 119.877 290.99 119.877C291.745 119.877 292.378 119.512 292.889 118.781C293.406 118.051 293.665 116.59 293.665 114.398C293.665 112.195 293.406 110.731 292.889 110.006C292.378 109.282 291.739 108.92 290.972 108.92C290.217 108.92 289.614 109.239 289.164 109.879C288.598 110.694 288.315 112.201 288.315 114.398ZM296.474 114.398C296.474 112.816 296.636 111.543 296.958 110.582C297.287 109.614 297.771 108.868 298.41 108.345C299.055 107.821 299.865 107.559 300.839 107.559C301.557 107.559 302.187 107.705 302.729 107.998C303.271 108.284 303.718 108.701 304.071 109.249C304.424 109.79 304.701 110.454 304.902 111.239C305.103 112.018 305.204 113.071 305.204 114.398C305.204 115.969 305.042 117.238 304.72 118.206C304.397 119.168 303.913 119.913 303.268 120.443C302.629 120.967 301.819 121.228 300.839 121.228C299.549 121.228 298.535 120.766 297.798 119.84C296.916 118.726 296.474 116.912 296.474 114.398ZM298.164 114.398C298.164 116.596 298.419 118.06 298.931 118.79C299.448 119.515 300.084 119.877 300.839 119.877C301.594 119.877 302.227 119.512 302.738 118.781C303.256 118.051 303.514 116.59 303.514 114.398C303.514 112.195 303.256 110.731 302.738 110.006C302.227 109.282 301.588 108.92 300.821 108.92C300.066 108.92 299.463 109.239 299.013 109.879C298.447 110.694 298.164 112.201 298.164 114.398Z" fill="white" fill-opacity="0.08"/>
</g>
<defs>
<filter id="filter0_f_1_50" x="80.8889" y="-31.1111" width="228.222" height="236.222" filterUnits="userSpaceOnUse" color-interpolation-filters="sRGB">
<feFlood flood-opacity="0" result="BackgroundImageFix"/>
<feBlend mode="normal" in="SourceGraphic" in2="BackgroundImageFix" result="shape"/>
<feGaussianBlur stdDeviation="15.5555" result="effect1_foregroundBlur_1_50"/>
</filter>
<clipPath id="clip0_1_50">
<rect width="329" height="243" fill="white"/>
</clipPath>
<clipPath id="clip1_1_50">
<rect width="314" height="317" fill="white" transform="translate(-3 -85)"/>
</clipPath>
</defs>
</svg>
